<svg width="188" height="40" viewBox="0 0 188 40" fill="none" xmlns="http://www.w3.org/2000/svg">
<circle cx="20" cy="20" r="18.8" fill="#5577FF" stroke="white" stroke-width="2.4"/>
<circle cx="20" cy="20" r="16.6" fill="white" stroke="#222255" stroke-width="2"/>
<path d="M16.674 29.2V30.2H17.674H22.326H23.326V29.2V23.326H29.2H30.2V22.326V17.674V16.674H29.2H23.326V10.8V9.79999H22.326H17.674H16.674V10.8V16.674H10.8H9.79999V17.674V22.326V23.326H10.8H16.674V29.2Z" fill="white" stroke="#222255" stroke-width="2"/>
<path d="M63.4435 16.0472C63.3725 15.3311 63.0677 14.7747 62.5291 14.3782C61.9905 13.9817 61.2596 13.7834 60.3363 13.7834C59.7089 13.7834 59.1792 13.8722 58.7472 14.0497C58.3151 14.2214 57.9837 14.4611 57.7528 14.7688C57.5279 15.0766 57.4155 15.4258 57.4155 15.8164C57.4036 16.1419 57.4717 16.426 57.6197 16.6687C57.7736 16.9113 57.9837 17.1214 58.25 17.299C58.5163 17.4706 58.8241 17.6216 59.1733 17.7518C59.5225 17.8761 59.8954 17.9826 60.2919 18.0714L61.9254 18.462C62.7185 18.6396 63.4465 18.8763 64.1094 19.1722C64.7723 19.4682 65.3464 19.8321 65.8317 20.2642C66.317 20.6963 66.6928 21.2053 66.9592 21.7912C67.2314 22.3771 67.3705 23.0489 67.3764 23.8065C67.3705 24.9192 67.0864 25.8839 66.5241 26.7006C65.9678 27.5115 65.1629 28.1418 64.1094 28.5916C63.0618 29.0355 61.7982 29.2575 60.3185 29.2575C58.8507 29.2575 57.5723 29.0326 56.4833 28.5827C55.4002 28.1329 54.5539 27.4671 53.9442 26.5852C53.3406 25.6974 53.0239 24.5996 52.9943 23.2915H56.7141C56.7556 23.9012 56.9302 24.4102 57.2379 24.8185C57.5516 25.221 57.9689 25.5258 58.4897 25.733C59.0165 25.9342 59.6113 26.0348 60.2741 26.0348C60.9252 26.0348 61.4904 25.9401 61.9698 25.7507C62.4551 25.5613 62.831 25.2979 63.0973 24.9606C63.3636 24.6232 63.4968 24.2356 63.4968 23.7976C63.4968 23.3892 63.3755 23.0459 63.1328 22.7678C62.8961 22.4896 62.5469 22.2528 62.0852 22.0575C61.6295 21.8622 61.0702 21.6847 60.4073 21.5249L58.4276 21.0277C56.8946 20.6548 55.6843 20.0719 54.7965 19.2788C53.9087 18.4857 53.4678 17.4174 53.4737 16.0739C53.4678 14.973 53.7608 14.0112 54.3526 13.1886C54.9504 12.3659 55.7701 11.7237 56.8118 11.2621C57.8535 10.8004 59.0372 10.5696 60.3629 10.5696C61.7124 10.5696 62.8902 10.8004 63.8963 11.2621C64.9084 11.7237 65.6955 12.3659 66.2578 13.1886C66.8201 14.0112 67.1101 14.9641 67.1278 16.0472H63.4435ZM72.5811 29L68.8701 15.3636H72.6965L74.8094 24.5256H74.9337L77.1354 15.3636H80.8907L83.1279 24.4723H83.2433L85.3208 15.3636H89.1382L85.4362 29H81.4323L79.0885 20.424H78.9198L76.5761 29H72.5811ZM91.1557 29V15.3636H94.9377V29H91.1557ZM93.0556 13.6058C92.4933 13.6058 92.0109 13.4194 91.6085 13.0465C91.2119 12.6677 91.0137 12.215 91.0137 11.6882C91.0137 11.1674 91.2119 10.7205 91.6085 10.3477C92.0109 9.96887 92.4933 9.77947 93.0556 9.77947C93.6178 9.77947 94.0972 9.96887 94.4938 10.3477C94.8962 10.7205 95.0975 11.1674 95.0975 11.6882C95.0975 12.215 94.8962 12.6677 94.4938 13.0465C94.0972 13.4194 93.6178 13.6058 93.0556 13.6058ZM109.313 19.2521L105.851 19.4652C105.792 19.1693 105.664 18.9029 105.469 18.6662C105.274 18.4235 105.016 18.2312 104.697 18.0891C104.383 17.9412 104.007 17.8672 103.569 17.8672C102.983 17.8672 102.489 17.9915 102.087 18.2401C101.684 18.4827 101.483 18.8082 101.483 19.2166C101.483 19.5421 101.613 19.8174 101.873 20.0423C102.134 20.2672 102.581 20.4477 103.214 20.5838L105.682 21.081C107.008 21.3532 107.996 21.7912 108.647 22.3949C109.298 22.9986 109.624 23.7917 109.624 24.7741C109.624 25.6679 109.36 26.4521 108.834 27.1268C108.313 27.8015 107.597 28.3282 106.685 28.707C105.78 29.0799 104.735 29.2663 103.551 29.2663C101.746 29.2663 100.308 28.8905 99.2368 28.1388C98.1714 27.3813 97.547 26.3514 97.3635 25.0494L101.083 24.854C101.196 25.4045 101.468 25.8247 101.9 26.1147C102.332 26.3988 102.886 26.5408 103.56 26.5408C104.223 26.5408 104.756 26.4136 105.158 26.1591C105.567 25.8987 105.774 25.5643 105.78 25.1559C105.774 24.8126 105.629 24.5315 105.345 24.3125C105.061 24.0876 104.623 23.916 104.031 23.7976L101.669 23.3271C100.338 23.0607 99.3463 22.5991 98.6952 21.9421C98.0501 21.2852 97.7275 20.4477 97.7275 19.4297C97.7275 18.5537 97.9643 17.7991 98.4378 17.1658C98.9172 16.5326 99.5889 16.0443 100.453 15.701C101.323 15.3577 102.341 15.1861 103.507 15.1861C105.229 15.1861 106.585 15.5501 107.573 16.2781C108.567 17.006 109.147 17.9974 109.313 19.2521ZM123.351 19.2521L119.889 19.4652C119.83 19.1693 119.702 18.9029 119.507 18.6662C119.312 18.4235 119.054 18.2312 118.735 18.0891C118.421 17.9412 118.045 17.8672 117.607 17.8672C117.021 17.8672 116.527 17.9915 116.125 18.2401C115.722 18.4827 115.521 18.8082 115.521 19.2166C115.521 19.5421 115.651 19.8174 115.912 20.0423C116.172 20.2672 116.619 20.4477 117.252 20.5838L119.72 21.081C121.046 21.3532 122.034 21.7912 122.685 22.3949C123.336 22.9986 123.662 23.7917 123.662 24.7741C123.662 25.6679 123.399 26.4521 122.872 27.1268C122.351 27.8015 121.635 28.3282 120.723 28.707C119.818 29.0799 118.773 29.2663 117.589 29.2663C115.784 29.2663 114.346 28.8905 113.275 28.1388C112.21 27.3813 111.585 26.3514 111.402 25.0494L115.121 24.854C115.234 25.4045 115.506 25.8247 115.938 26.1147C116.37 26.3988 116.924 26.5408 117.598 26.5408C118.261 26.5408 118.794 26.4136 119.196 26.1591C119.605 25.8987 119.812 25.5643 119.818 25.1559C119.812 24.8126 119.667 24.5315 119.383 24.3125C119.099 24.0876 118.661 23.916 118.069 23.7976L115.707 23.3271C114.376 23.0607 113.384 22.5991 112.733 21.9421C112.088 21.2852 111.766 20.4477 111.766 19.4297C111.766 18.5537 112.002 17.7991 112.476 17.1658C112.955 16.5326 113.627 16.0443 114.491 15.701C115.361 15.3577 116.379 15.1861 117.545 15.1861C119.267 15.1861 120.623 15.5501 121.611 16.2781C122.605 17.006 123.185 17.9974 123.351 19.2521ZM126.043 29V15.3636H129.648V17.7695H129.808C130.092 16.9705 130.565 16.3402 131.228 15.8786C131.891 15.4169 132.684 15.1861 133.607 15.1861C134.542 15.1861 135.339 15.4199 135.995 15.8874C136.652 16.3491 137.09 16.9764 137.309 17.7695H137.451C137.73 16.9883 138.233 16.3639 138.961 15.8963C139.695 15.4228 140.562 15.1861 141.562 15.1861C142.834 15.1861 143.867 15.5915 144.66 16.4023C145.459 17.2073 145.859 18.3495 145.859 19.8292V29H142.086V20.5749C142.086 19.8174 141.884 19.2492 141.482 18.8704C141.08 18.4916 140.576 18.3022 139.973 18.3022C139.286 18.3022 138.751 18.5212 138.366 18.9592C137.981 19.3912 137.789 19.9624 137.789 20.6726V29H134.122V20.495C134.122 19.8262 133.93 19.2936 133.545 18.897C133.166 18.5005 132.666 18.3022 132.045 18.3022C131.625 18.3022 131.246 18.4087 130.908 18.6218C130.577 18.829 130.314 19.1219 130.118 19.5007C129.923 19.8736 129.825 20.3116 129.825 20.8146V29H126.043ZM155.007 29.2663C153.628 29.2663 152.436 28.9734 151.43 28.3874C150.429 27.7956 149.657 26.9729 149.112 25.9194C148.568 24.86 148.296 23.6319 148.296 22.2351C148.296 20.8265 148.568 19.5954 149.112 18.5419C149.657 17.4825 150.429 16.6598 151.43 16.0739C152.436 15.482 153.628 15.1861 155.007 15.1861C156.386 15.1861 157.576 15.482 158.576 16.0739C159.582 16.6598 160.358 17.4825 160.902 18.5419C161.447 19.5954 161.719 20.8265 161.719 22.2351C161.719 23.6319 161.447 24.86 160.902 25.9194C160.358 26.9729 159.582 27.7956 158.576 28.3874C157.576 28.9734 156.386 29.2663 155.007 29.2663ZM155.025 26.3366C155.652 26.3366 156.176 26.1591 156.597 25.804C157.017 25.4429 157.333 24.9517 157.546 24.3303C157.765 23.7088 157.875 23.0015 157.875 22.2085C157.875 21.4154 157.765 20.7081 157.546 20.0866C157.333 19.4652 157.017 18.974 156.597 18.6129C156.176 18.2519 155.652 18.0714 155.025 18.0714C154.392 18.0714 153.859 18.2519 153.427 18.6129C153.001 18.974 152.678 19.4652 152.459 20.0866C152.246 20.7081 152.14 21.4154 152.14 22.2085C152.14 23.0015 152.246 23.7088 152.459 24.3303C152.678 24.9517 153.001 25.4429 153.427 25.804C153.859 26.1591 154.392 26.3366 155.025 26.3366ZM171.431 15.3636V18.2045H163.219V15.3636H171.431ZM165.084 12.0966H168.866V24.8097C168.866 25.1589 168.919 25.4311 169.025 25.6264C169.132 25.8158 169.28 25.949 169.469 26.0259C169.665 26.1029 169.89 26.1413 170.144 26.1413C170.322 26.1413 170.499 26.1265 170.677 26.0969C170.854 26.0614 170.99 26.0348 171.085 26.017L171.68 28.8313C171.491 28.8905 171.224 28.9586 170.881 29.0355C170.538 29.1184 170.12 29.1687 169.629 29.1864C168.718 29.2219 167.919 29.1006 167.232 28.8224C166.552 28.5443 166.022 28.1122 165.643 27.5263C165.264 26.9403 165.078 26.2005 165.084 25.3068V12.0966ZM179.963 29.2663C178.56 29.2663 177.353 28.9822 176.341 28.4141C175.335 27.84 174.559 27.0291 174.015 25.9815C173.47 24.928 173.198 23.6822 173.198 22.244C173.198 20.8413 173.47 19.6102 174.015 18.5508C174.559 17.4914 175.326 16.6657 176.314 16.0739C177.309 15.482 178.474 15.1861 179.812 15.1861C180.712 15.1861 181.549 15.3311 182.324 15.6211C183.106 15.9052 183.786 16.3343 184.366 16.9084C184.952 17.4825 185.408 18.2045 185.734 19.0746C186.059 19.9387 186.222 20.9508 186.222 22.1108V23.1495H174.707V20.8058H182.662C182.662 20.2612 182.543 19.7789 182.307 19.3587C182.07 18.9384 181.742 18.61 181.321 18.3732C180.907 18.1306 180.425 18.0092 179.874 18.0092C179.3 18.0092 178.791 18.1424 178.347 18.4087C177.909 18.6692 177.566 19.0213 177.317 19.4652C177.069 19.9032 176.942 20.3915 176.936 20.93V23.1584C176.936 23.8331 177.06 24.4161 177.309 24.9073C177.563 25.3986 177.921 25.7773 178.383 26.0437C178.844 26.31 179.392 26.4432 180.025 26.4432C180.445 26.4432 180.83 26.384 181.179 26.2656C181.528 26.1473 181.827 25.9697 182.076 25.733C182.324 25.4962 182.514 25.2062 182.644 24.8629L186.142 25.0938C185.964 25.9342 185.6 26.6681 185.05 27.2955C184.505 27.9169 183.801 28.4022 182.937 28.7514C182.079 29.0947 181.088 29.2663 179.963 29.2663Z" fill="white"/>
</svg>
